<svg width="160" height="70" viewBox="0 0 160 70" fill="none" xmlns="http://www.w3.org/2000/svg">
<path d="M40.0153 34.3953C39.6271 33.5553 39.4259 33.1176 39.1541 32.4612C38.9035 33.1176 38.8012 33.3188 38.3459 34.4482L37.4212 36.7212H41.0565L40.0153 34.3953ZM36.3765 39.5306L35.0812 42.3929H31.2941L37.8941 28.4871H41.0918L47.6918 42.3929H43.9541L42.5424 39.5306H36.3765ZM57.1365 34.5153C57.9094 34.5153 58.2306 34.4659 58.5482 34.2965C58.7957 34.1524 59.0016 33.9466 59.1457 33.6991C59.2899 33.4517 59.3673 33.1711 59.3706 32.8847C59.365 32.5989 59.2865 32.3192 59.1426 32.0721C58.9987 31.8251 58.7941 31.6188 58.5482 31.4729C58.2447 31.3035 57.9235 31.2718 57.1365 31.2718H52.5059V34.5153H57.1365ZM52.5059 42.3929H49.0224V28.4871H58.0965C59.7129 28.4871 60.5882 28.6882 61.4106 29.1929C61.9348 29.5251 62.3659 29.985 62.6635 30.5295C62.9611 31.0741 63.1154 31.6853 63.1118 32.3059C63.1118 33.9576 62.2541 35.1859 60.6871 35.8353C62.0671 36.3224 62.4906 37.0988 62.5224 39.2694C62.5894 41.0024 62.6918 41.5071 63.1118 42.4H59.2753C59.0212 41.6271 58.9718 41.3059 59.0035 39.9753C59.0035 37.9565 58.4494 37.3318 56.6635 37.3318H52.5059V42.3929Z" fill="#00112C"/>
<path d="M79.4106 42.3929V28.4871H92.1376V31.3106H82.8941V33.9188H91.0576V36.7424H82.8941V39.6047H92.1376V42.4282L79.4106 42.3929Z" fill="#00112C"/>
<path d="M102.235 42.3929H98.7483V31.3H93.9377V28.4764H107.035V31.3H102.235V42.3929Z" fill="#00112C"/>
<path d="M124.118 36.9576C123.126 40.9106 120.415 42.8976 115.919 42.8976C110.801 42.8976 107.568 40.0529 107.568 35.5741C107.568 30.9859 110.904 28 116.004 28C118.446 28 120.362 28.6388 121.88 30.0012C122.908 30.8579 123.624 32.0305 123.916 33.3365H120.151C119.445 31.5718 118.065 30.7106 115.975 30.7106C113.18 30.7106 111.246 32.68 111.246 35.5071C111.246 38.2706 113.166 40.1871 115.908 40.1871C118.132 40.1871 119.462 39.1953 120.267 36.9576H124.118Z" fill="#00112C"/>
<path d="M136.516 28.4871V33.9082H129.359V28.4871H125.882V42.3929H129.366V36.7212H136.523V42.3929H140V28.4871H136.516Z" fill="#00112C"/>
<path d="M20 42.3929V28.4871H32.2047V31.3106H23.4835V33.9188H31.4812V36.7424H23.4835V42.3929H20Z" fill="#00112C"/>
<path d="M65.4023 42.3929V28.4871H77.6071V31.3106H68.8859V33.9188H76.9012V36.7424H68.8859V42.3929H65.4023Z" fill="#00112C"/>
</svg>
