<?xml version="1.0" encoding="UTF-8"?>
<svg width="160px" height="70px" viewBox="0 0 160 70" version="1.1" xmlns="http://www.w3.org/2000/svg" xmlns:xlink="http://www.w3.org/1999/xlink">
    <!-- Generator: Sketch 49.3 (51167) - http://www.bohemiancoding.com/sketch -->
    <title>flixbus-logobar</title>
    <desc>Created with Sketch.</desc>
    <defs></defs>
    <g id="flixbus-logobar" stroke="none" stroke-width="1" fill="none" fill-rule="evenodd">
        <g id="Group" transform="translate(27.000000, 27.000000)">
            <polygon id="Fill-1" fill="#00112C" points="2.53120127 0.023615566 1.84700859 0.0807099057 1.21979201 0.309488208 0.707326736 0.651733491 0.307774832 1.16638443 0.0800302465 1.79450236 0.0231340553 2.59430425 0.0231340553 16.7577901 4.29825952 16.7577901 4.29825952 10.0760684 11.5944768 10.0760684 11.5944768 6.70557783 4.29825952 6.70557783 4.29825952 4.5361533 4.35483607 3.96512972 4.58274048 3.62216274 4.92539619 3.45047877 5.43786146 3.39338443 13.988432 3.39338443 13.988432 0.023615566"></polygon>
            <polygon id="Stroke-2" points="2.5311773 0.023615566 13.9884081 0.023615566 13.9884081 3.39338443 5.4379174 3.39338443 4.92537222 3.45047877 4.58279642 3.62216274 4.3548121 3.96512972 4.29823555 4.5361533 4.29823555 6.70557783 11.5944529 6.70557783 11.5944529 10.0760684 4.29823555 10.0760684 4.29823555 16.7577901 0.0231100822 16.7577901 0.0231100822 2.59430425 0.0800861837 1.79450236 0.307830769 1.16638443 0.707302763 0.651733491 1.21976804 0.309488208 1.84698462 0.0807099057"></polygon>
            <polygon id="Fill-4" fill="#00112C" points="16.1540913 0.023615566 16.1540913 0.0236957547 16.1540913 14.1871014 16.2110674 14.9869033 16.4397709 15.6721156 16.8382839 16.1296722 17.2948919 16.4719175 17.9208299 16.7006156 18.6620786 16.7577901 27.7823302 16.7577901 27.7823302 13.388342 21.5695379 13.388342 20.9993773 13.3311675 20.6579202 13.1595637 20.4861928 12.8165967 20.4292167 12.3026675 20.4292167 0.023615566"></polygon>
            <polygon id="Stroke-5" points="16.1540993 0.023615566 20.4292247 0.023615566 20.4292247 12.3026675 20.4861209 12.8165967 20.6578483 13.1594835 20.9993853 13.3311675 21.5695459 13.388342 27.7824181 13.388342 27.7824181 16.7577901 18.6620066 16.7577901 17.9208379 16.7006156 17.2948199 16.4719175 16.8382919 16.1296722 16.4397789 15.6721156 16.2110754 14.9868231 16.1540993 14.1871014"></polygon>
            <polygon id="Fill-7" fill="#00112C" points="36.7888295 0.023615566 42.9442462 8.30478066 36.5609251 16.7577901 41.6910916 16.7577901 45.395657 11.2752099 49.1582373 16.7577901 54.2310282 16.7577901 47.9035644 8.30478066 54.0600999 0.0236957547 48.9295338 0.0236957547 45.395657 5.27854009 41.8617003 0.023615566"></polygon>
            <polygon id="Stroke-8" points="36.7888135 0.023615566 41.8616044 0.023615566 45.395641 5.27845991 48.9295977 0.023615566 54.0601638 0.023615566 47.9035484 8.30486085 54.2310122 16.7577901 49.1583012 16.7577901 45.395641 11.2752099 41.6910757 16.7577901 36.5609091 16.7577901 42.9443102 8.30486085"></polygon>
            <path d="M58.2212252,0.023679717 L57.4801363,0.0807740566 L56.8529996,0.309552358 L56.3397353,0.651797642 L55.9978786,1.16644858 L55.7703738,1.79448632 L55.6563417,2.5943684 L55.6563417,14.1870854 L55.7703738,14.9868873 L55.9978786,15.6720995 L56.3397353,16.1296561 L56.8529996,16.4719014 L57.4801363,16.7005995 L58.2212252,16.7577741 L67.1699892,16.7577741 L68.3103902,16.7005995 L69.2224074,16.4146467 L69.9635762,16.0153071 L70.5330176,15.5015382 L70.9322498,14.8161656 L71.1601542,14.0736986 L71.3310825,13.1595476 L71.3876591,12.1309675 L71.3310825,11.1035099 L71.1030982,10.2466137 L70.8186173,9.50390613 L70.3050332,8.93288255 L69.5639444,8.53354292 L68.5951908,8.30484481 L68.5951908,8.19065613 L69.4499122,7.96267972 L70.0775284,7.50536368 L70.5330176,6.99151462 L70.8186173,6.30630236 L70.9892259,5.50650047 L71.046202,4.65032594 L70.9892259,3.3933684 L70.7616412,2.36550991 L70.3620093,1.50861368 L69.7347928,0.880575943 L68.9937039,0.424061792 L68.0816068,0.138189151 L66.9420049,0.023679717 L58.2212252,0.023679717 Z M59.9885232,4.3644533 L60.0450997,3.85060425 L60.2159481,3.50763726 L60.5008286,3.33587311 L61.014093,3.27990142 L61.0141729,3.2799816 L65.1182901,3.2799816 L65.7455067,3.33587311 L66.2009959,3.5647316 L66.5435717,3.90809953 L66.7145799,4.3644533 L66.7714761,4.99265142 L66.7145799,5.67818443 L66.5435717,6.19171274 L66.2009959,6.53516085 L65.7455067,6.70564198 L65.1182901,6.76273632 L59.9885232,6.76273632 L59.9885232,4.3644533 Z M60.5574851,13.4455005 L60.2159481,13.2738967 L60.0450198,12.9308495 L59.9884432,12.3027316 L59.9884432,9.9043684 L65.2321624,9.9043684 L65.859379,9.96146274 L66.3717644,10.1321042 L66.7144201,10.4754722 L66.8850288,10.9890005 L66.998901,11.6745335 L66.8850288,12.4169203 L66.7144201,12.873675 L66.3147084,13.2739769 L65.8024029,13.4455005 L65.1182102,13.5017127 L61.1849414,13.5017127 L60.5574851,13.4455005 Z" id="Fill-10" fill="#00112C"></path>
            <path d="M58.2212571,0.0236556604 L66.9420368,0.0236556604 L68.0816388,0.138245283 L68.9937358,0.424117925 L69.7348247,0.880551887 L70.3620413,1.50866981 L70.7616731,2.36556604 L70.989178,3.39342453 L71.0461541,4.65038208 L70.989178,5.50647642 L70.8186492,6.3062783 L70.5329696,6.99149057 L70.0774804,7.50541981 L69.4499442,7.96257547 L68.5952228,8.19063208 L68.5952228,8.30482075 L69.5638964,8.53359906 L70.3050652,8.93293868 L70.8186492,9.50396226 L71.1031302,10.2465896 L71.3311145,11.103566 L71.387691,12.1309434 L71.3311145,13.1595236 L71.1601862,14.0736745 L70.9322019,14.8162217 L70.5329696,15.5015142 L69.9635282,16.015283 L69.2224394,16.4146226 L68.3103423,16.7006557 L67.1699412,16.7578302 L58.2212571,16.7578302 L57.4801683,16.7006557 L56.8529517,16.4718774 L56.3397672,16.1297123 L55.9979106,15.6721557 L55.7703258,14.9868632 L55.6563736,14.1870613 L55.6563736,2.59434434 L55.7703258,1.79454245 L55.9979106,1.16642453 L56.3397672,0.651773585 L56.8529517,0.309528302 L57.4801683,0.08075 L58.2212571,0.0236556604 Z M61.014045,3.27987736 L60.5008606,3.33592925 L60.2159801,3.50761321 L60.0450518,3.85058019 L59.9884752,4.36450943 L59.9884752,6.76279245 L65.1183221,6.76279245 L65.7454588,6.70569811 L66.2009479,6.53513679 L66.5436037,6.19176887 L66.714532,5.67824057 L66.7715081,4.99262736 L66.714532,4.36450943 L66.5436037,3.90807547 L66.2009479,3.56470755 L65.7454588,3.33592925 L65.1183221,3.27995755 L61.0141249,3.27995755 L61.014045,3.27987736 Z M59.9883953,9.90442453 L59.9883953,12.3027075 L60.0449718,12.9308255 L60.2159801,13.2738726 L60.5574371,13.4454764 L61.1849733,13.5017689 L65.1182422,13.5017689 L65.802355,13.4454764 L66.3147403,13.2739528 L66.7143721,12.8736509 L66.8849808,12.4168962 L66.998933,11.6745896 L66.8849808,10.9889764 L66.7143721,10.4754481 L66.3717963,10.1320802 L65.8593311,9.96151887 L65.2321145,9.90442453 L59.9883953,9.90442453 Z" id="Stroke-11"></path>
            <path d="M85.2393504,0.023679717 L85.2393504,10.1895193 L85.1253177,11.2752741 L84.8966929,12.1309675 L84.384225,12.7602882 L83.7000288,13.2739769 L82.8453829,13.5017127 L81.7623519,13.616142 L80.6789214,13.5017127 L79.8238759,13.2739769 L79.1404788,12.7602882 L78.6842681,12.1309675 L78.3993861,11.2752741 L78.285753,10.1895193 L78.285753,0.023679717 L74.0099662,0.023679717 L74.0099662,10.3608825 L74.0676618,11.7887222 L74.3521442,12.9879439 L74.7505794,14.0165241 L75.3212224,14.8723778 L76.0623151,15.5578307 L76.9171208,16.0724816 L77.9431754,16.4719014 L79.0835024,16.7579344 L80.337063,16.9284156 L81.7624318,16.9284156 L83.1869216,16.9284156 L84.4412813,16.7579344 L85.5812887,16.4719014 L86.6076629,16.0724816 L87.4627084,15.5578307 L88.2031618,14.8723778 L88.7733253,14.0165241 L89.1729592,12.9879439 L89.4574416,11.7887222 L89.514418,10.3608825 L89.514418,0.023679717 L85.2393504,0.023679717 Z M74.0099662,0.023679717 L74.0100662,0.023679717 L74.0099662,0.023679717 Z" id="Fill-13" fill="#00112C"></path>
            <polygon id="Stroke-14" points="74.0099582 0.0236556604 78.2858028 0.0236556604 78.2858028 10.1894953 78.3994354 11.27525 78.6843159 12.1309434 79.1405243 12.7602642 79.8239178 13.2739528 80.6789589 13.5017689 81.7623839 13.6161179 82.8454093 13.5017689 83.7001307 13.2739528 84.3842435 12.7602642 84.8967087 12.1309434 85.1254122 11.27525 85.2393645 10.1894953 85.2393645 0.0236556604 89.51441 0.0236556604 89.51441 10.3608585 89.4575138 11.7887783 89.1729529 12.9879198 88.7733211 14.0165 88.2031606 14.872434 87.4627909 15.5578066 86.6076699 16.0725377 85.581301 16.4718774 84.4412995 16.7579104 83.1869462 16.9284717 81.7624638 16.9284717 80.3371822 16.9284717 79.0835482 16.7579104 77.943227 16.4718774 76.9171777 16.0725377 76.0624563 15.5578066 75.3212875 14.872434 74.7507274 14.0165 74.3522143 12.9879198 74.0677334 11.7887783 74.0100381 10.3608585 74.0100381 0.0236556604"></polygon>
            <polygon id="Fill-16" fill="#00112C" points="94.7013689 0.138221226 93.7891919 0.424093868 93.105159 0.93762217 92.5926937 1.56614104 92.1933816 2.30844764 92.0224532 3.22243821 91.908501 4.25021651 91.9653972 5.39186274 92.1933816 6.36334858 92.5360373 7.220325 93.0485025 7.9626316 93.7891919 8.533575 94.758345 8.93299481 101.256417 10.9319382 101.883954 11.1606363 102.282467 11.5028816 102.51109 11.8462495 102.568066 12.2456693 102.568066 12.5314618 102.453315 12.8736269 102.282387 13.1024854 101.94093 13.3311835 101.37037 13.3882778 92.1364055 13.3882778 92.1364055 16.7578061 103.137508 16.7578061 104.220933 16.6434571 105.13303 16.3575042 105.817143 15.8436552 106.329608 15.1584429 106.672184 14.358641 106.899768 13.3882778 106.956745 12.3027637 106.842712 11.0464476 106.614089 10.0186693 106.15852 9.21918821 105.474487 8.53365519 104.619765 8.02012689 103.479684 7.61966462 97.6087482 5.90659387 96.9816116 5.62064104 96.5819798 5.33597123 96.3544749 4.93550896 96.2974988 4.479075 96.411451 3.96514575 96.6400746 3.62217877 97.0386676 3.45041462 97.4371007 3.39340047 106.101624 3.39340047 106.101624 0.0237117925 95.7850335 0.0237117925 95.7851134 0.0236316038"></polygon>
            <polygon id="Stroke-17" points="95.7850655 0.0236556604 106.101655 0.0236556604 106.101655 3.39342453 97.4371327 3.39342453 97.0386996 3.45043868 96.6401066 3.62220283 96.411483 3.96516981 96.2974509 4.47909906 96.354427 4.93545283 96.5820117 5.33599528 96.9816435 5.62066509 97.6087802 5.90661792 103.479716 7.61960849 104.619797 8.02007075 105.474439 8.53367925 106.158552 9.21921226 106.614121 10.0186934 106.842744 11.0464717 106.956776 12.3027075 106.8998 13.3883019 106.672216 14.3586651 106.32956 15.1583868 105.817175 15.8436792 105.132982 16.3574481 104.220885 16.6434811 103.13754 16.7578302 92.1364374 16.7578302 92.1364374 13.3883019 101.370402 13.3883019 101.940882 13.3311274 102.282419 13.1025094 102.453347 12.8736509 102.568098 12.5314858 102.568098 12.2456132 102.511122 11.8462736 102.282499 11.5028255 101.883906 11.1606604 101.256449 10.9318821 94.758297 8.93301887 93.7892238 8.53359906 93.0485345 7.96257547 92.5360692 7.22026887 92.1934135 6.36337264 91.9654292 5.39188679 91.908533 4.25024057 92.0224852 3.22246226 92.1934135 2.3084717 92.5927257 1.56608491 93.1051111 0.937646226 93.7892238 0.424117925 94.7013209 0.138245283 95.7851454 0.0236556604"></polygon>
            <path d="M29.8348603,3.85058019 L34.3374907,3.85058019 L34.3374907,0.08075 L29.8348603,0.08075 L29.8348603,3.85058019 Z M29.8348603,16.75775 L34.3374907,16.75775 L34.3374907,6.5350566 L29.8348603,6.5350566 L29.8348603,16.75775 Z" id="Fill-19" fill="#00112C"></path>
            <path d="M29.8348603,3.85058019 L34.3374907,3.85058019 L34.3374907,0.08075 L29.8348603,0.08075 L29.8348603,3.85058019 Z M29.8348603,16.75775 L34.3374907,16.75775 L34.3374907,6.5350566 L29.8348603,6.5350566 L29.8348603,16.75775 Z" id="Stroke-20"></path>
        </g>
    </g>
</svg>