<svg width="24" height="24" viewBox="0 0 24 24" fill="none" xmlns="http://www.w3.org/2000/svg">
<path d="M8 10H3C1.9 10 1 9.1 1 8V5C1 3.9 1.9 3 3 3H8C9.1 3 10 3.9 10 5V8C10 9.1 9.1 10 8 10Z" stroke="#00112C" stroke-width="2" stroke-miterlimit="10"/>
<path d="M21 10H16C14.9 10 14 9.1 14 8V5C14 3.9 14.9 3 16 3H21C22.1 3 23 3.9 23 5V8C23 9.1 22.1 10 21 10Z" stroke="#00112C" stroke-width="2" stroke-miterlimit="10"/>
<path d="M8 21H3C1.9 21 1 20.1 1 19V16C1 14.9 1.9 14 3 14H8C9.1 14 10 14.9 10 16V19C10 20.1 9.1 21 8 21Z" stroke="#00112C" stroke-width="2" stroke-miterlimit="10"/>
<path d="M21 21H16C14.9 21 14 20.1 14 19V16C14 14.9 14.9 14 16 14H21C22.1 14 23 14.9 23 16V19C23 20.1 22.1 21 21 21Z" stroke="#00112C" stroke-width="2" stroke-miterlimit="10"/>
<path d="M4.5 8C5.32843 8 6 7.32843 6 6.5C6 5.67157 5.32843 5 4.5 5C3.67157 5 3 5.67157 3 6.5C3 7.32843 3.67157 8 4.5 8Z" fill="#00112C"/>
<path d="M19.5 19C20.3284 19 21 18.3284 21 17.5C21 16.6716 20.3284 16 19.5 16C18.6716 16 18 16.6716 18 17.5C18 18.3284 18.6716 19 19.5 19Z" fill="#00112C"/>
<path d="M22 6H14.5" stroke="#00112C" stroke-width="2" stroke-miterlimit="10"/>
<path d="M4 14V21" stroke="#00112C" stroke-width="2" stroke-miterlimit="10"/>
</svg>
