<svg width="160" height="70" viewBox="0 0 160 70" fill="none" xmlns="http://www.w3.org/2000/svg">
<path d="M66.5164 22.9331C66.9306 23.6235 66.8961 24.4174 66.5509 25.0732C65.2392 27.1098 64.6524 29.5606 64.8595 31.9768C65.3082 38.7768 61.5113 45.922 54.6422 49.9261C47.7386 53.9302 39.6615 53.7231 34.0005 49.9606C31.9985 48.5454 29.5822 47.855 27.166 47.9931C26.4411 47.9931 25.7162 47.6134 25.302 46.923C24.8878 46.2327 24.9223 45.4388 25.2675 44.7829C26.5792 42.7464 27.166 40.2956 26.9589 37.8794C26.5102 31.0793 30.3071 23.9341 37.1762 19.9301C44.0798 15.926 52.1569 16.1331 57.8179 19.8955C59.8199 21.3108 62.2362 22.0011 64.6524 21.8631C65.4118 21.8631 66.1367 22.2428 66.5164 22.9331Z" fill="#00112C"/>
<path d="M97.4443 49.5119V35.8083H107.144V38.8804H101.276V41.2277H106.384V43.851H101.276V46.4399H107.351V49.5119H97.4443Z" fill="#00112C"/>
<path d="M130.72 49.5119V43.6784L130.582 43.7475C129.098 44.2652 127.544 44.5414 125.991 44.6104H125.887V49.5119H121.883V35.8083H125.887V41.5383H125.991C126.094 41.5383 128.062 41.5383 130.651 40.6754L130.72 40.6409V35.8083H134.724V49.5119H130.72V49.5119Z" fill="#00112C"/>
<path d="M73.1094 49.512V35.8429H82.7399V39.1911H77.0789V41.8835H81.6008V44.783H77.0789V49.512H73.1094Z" fill="#00112C"/>
<path d="M87.6755 34.0478V20.3442H97.6167V23.4163H91.4725V25.7635H96.5811V28.3869H91.4725V30.9757H97.5477V34.0478H87.6755Z" fill="#00112C"/>
<path d="M109.974 34.0478V20.3442H113.978V30.6996H119.398V34.0478H109.974Z" fill="#00112C"/>
<path d="M99.1357 34.0478V20.3442H103.14V30.6996H108.594V34.0478H99.1357Z" fill="#00112C"/>
<path d="M127.44 34.4275C125.991 34.4275 124.783 34.1514 123.574 33.53C122.435 32.9777 121.503 32.1148 120.882 31.0102C120.261 29.9402 119.916 28.663 119.916 27.2133C119.916 25.7635 120.226 24.4863 120.882 23.4163C121.538 22.3462 122.47 21.4488 123.574 20.8965C124.783 20.2752 125.991 19.999 127.44 19.999C128.89 19.999 130.098 20.2752 131.306 20.8965C132.446 21.4488 133.377 22.3462 134.033 23.4163C134.655 24.4863 135 25.7635 135 27.2133C135 28.663 134.689 29.9402 134.033 31.0102C133.377 32.0803 132.446 32.9777 131.306 33.53C130.098 34.1514 128.89 34.4275 127.44 34.4275ZM127.44 23.3473C126.785 23.3473 126.129 23.4853 125.576 23.8305C125.024 24.1412 124.575 24.6244 124.265 25.1767C123.954 25.7635 123.816 26.4539 123.816 27.2133C123.816 27.9727 123.954 28.663 124.265 29.2498C124.575 29.8021 125.024 30.2854 125.576 30.596C126.75 31.2173 128.131 31.2173 129.304 30.596C129.857 30.2854 130.34 29.8366 130.616 29.2498C130.927 28.663 131.099 27.9727 131.099 27.2133C131.099 26.4539 130.927 25.7635 130.616 25.1767C130.305 24.6244 129.857 24.1412 129.304 23.8305C128.718 23.5198 128.096 23.3473 127.44 23.3473Z" fill="#00112C"/>
<path d="M81.9804 34.0478V28.2143L81.8423 28.2833C80.358 28.8011 78.8047 29.0773 77.2514 29.1463H77.1479V34.0478H73.1438V20.3442H77.1479V26.0742H77.2514C77.355 26.0742 79.3225 26.0742 81.9113 25.2113L81.9804 25.1767V20.3442H85.9845V34.0478H81.9804V34.0478Z" fill="#00112C"/>
<path d="M114.497 49.7881C114.358 49.7881 114.22 49.7881 114.082 49.7881C113.047 49.7536 112.011 49.5465 111.045 49.1668C110.147 48.7871 109.422 48.2693 108.87 47.6135C108.628 47.3028 108.421 46.9922 108.249 46.647L111.39 44.9901C111.459 45.3353 111.597 45.646 111.839 45.9566C112.115 46.3018 112.46 46.5779 112.874 46.7505C113.357 46.9576 113.875 47.0612 114.358 47.0612C114.427 47.0612 114.497 47.0612 114.566 47.0612C114.911 47.0612 115.256 47.0267 115.601 46.9231C115.912 46.8541 116.188 46.6815 116.43 46.4744C116.637 46.3018 116.775 46.0257 116.775 45.7495C116.809 45.4389 116.671 45.1282 116.395 44.9211C116.119 44.714 115.808 44.5759 115.498 44.5069C115.152 44.4033 114.635 44.2998 113.91 44.1617C112.805 43.9546 111.873 43.713 111.183 43.4713C110.492 43.2297 109.837 42.781 109.353 42.2287C108.836 41.6419 108.628 40.848 108.663 39.7779C108.698 38.8805 108.974 38.0865 109.457 37.3962C109.94 36.7058 110.631 36.2226 111.493 35.8774C112.322 35.5667 113.219 35.3942 114.082 35.4287C114.186 35.4287 114.324 35.4287 114.427 35.4287C115.325 35.4632 116.222 35.6358 117.051 35.981C117.776 36.2916 118.432 36.7404 118.949 37.3272C119.191 37.6033 119.398 37.9485 119.571 38.2937L116.706 39.8124C116.637 39.3637 116.395 38.984 116.015 38.7079C115.601 38.3972 115.118 38.2246 114.497 38.1901H114.358C114.082 38.1901 113.806 38.2246 113.53 38.2937C113.254 38.3627 113.047 38.5008 112.84 38.7079C112.667 38.8805 112.564 39.1221 112.564 39.3982C112.529 39.7089 112.667 40.0195 112.943 40.1921C113.185 40.3992 113.495 40.5373 113.806 40.6064C114.117 40.6754 114.669 40.8135 115.394 40.9515C116.326 41.1241 117.258 41.3312 118.155 41.6074C118.88 41.849 119.536 42.2977 120.019 42.85C120.537 43.4368 120.779 44.2652 120.71 45.3353C120.675 46.2328 120.365 47.0612 119.812 47.7516C119.26 48.4419 118.466 48.9597 117.5 49.3394C116.568 49.6155 115.567 49.7881 114.497 49.7881Z" fill="#00112C"/>
<path d="M95.7875 49.6846C95.0281 49.6846 94.2342 49.581 93.5093 49.3394C93.0951 49.2013 92.7154 49.0287 92.3357 48.8216C91.956 48.6145 91.6108 48.3729 91.2657 48.0967C90.6098 47.5445 90.0575 46.9231 89.6088 46.1983C89.4017 45.8531 89.1946 45.5079 89.022 45.1282C88.9875 45.0247 88.9184 44.9211 88.8839 44.8175L88.8494 44.7485H88.09V49.5465H84.0859V35.8429H90.2992C91.4037 35.8429 92.4047 36.0155 93.2677 36.3952C94.1306 36.7749 94.7865 37.2926 95.2352 37.983C95.6839 38.6734 95.9256 39.5018 95.9256 40.3302C95.9256 40.8825 95.822 41.4003 95.5804 41.8835C95.3733 42.3668 95.0281 42.7465 94.6139 43.0916C94.0961 43.4713 93.5093 43.782 92.888 43.9891L92.7499 44.0236L92.8535 44.2307C93.0606 44.6104 93.3367 44.9901 93.6474 45.2663C93.7855 45.4043 93.958 45.5424 94.1306 45.646C94.3032 45.7495 94.4758 45.8531 94.6829 45.9221C95.0626 46.0602 95.4423 46.1637 95.8565 46.1983V49.65H95.7875V49.6846ZM88.0555 42.0906H89.8159C90.1611 42.0906 90.5063 42.0216 90.8514 41.8835C91.1621 41.7455 91.4382 41.5383 91.6453 41.2622C91.8525 40.9861 91.956 40.6754 91.956 40.3647C91.956 40.0196 91.8525 39.7089 91.6453 39.4328C91.4382 39.1566 91.1621 38.9495 90.8514 38.8114C90.5408 38.6734 90.1611 38.6043 89.8159 38.6043H88.0555V42.0906Z" fill="#00112C"/>
</svg>
