<?xml version="1.0" encoding="UTF-8"?>
<svg width="160px" height="70px" viewBox="0 0 160 70" version="1.1" xmlns="http://www.w3.org/2000/svg" xmlns:xlink="http://www.w3.org/1999/xlink">
    <!-- Generator: Sketch 50.2 (55047) - http://www.bohemiancoding.com/sketch -->
    <title>linkedin-logo-bar</title>
    <desc>Created with Sketch.</desc>
    <defs>
        <polygon id="path-1" points="0.347222222 24.9166667 42.1 24.9166667 42.1 0 0.347222222 0 0.347222222 24.9166667"></polygon>
    </defs>
    <g id="linkedin-logo-bar" stroke="none" stroke-width="1" fill="none" fill-rule="evenodd">
        <g id="Logo-2C-Black-0p25in-R" transform="translate(30.000000, 23.000000)">
            <polyline id="Fill-1" fill="#00112C" points="0 3.69722222 3.85694444 3.69722222 3.85694444 17.7430556 10.9958333 17.7430556 10.9958333 21.3027778 0 21.3027778 0 3.69722222"></polyline>
            <path d="M14.5527778,3.43611111 C15.7388889,3.43611111 16.7027778,4.4 16.7027778,5.58611111 C16.7027778,6.77361111 15.7388889,7.73472222 14.5527778,7.73472222 C13.3680556,7.73472222 12.4041667,6.77361111 12.4041667,5.58611111 C12.4041667,4.4 13.3680556,3.43611111 14.5527778,3.43611111 Z M12.6986111,21.2972222 L16.4055556,21.2972222 L16.4055556,9.36666667 L12.6986111,9.36666667 L12.6986111,21.2972222 Z" id="Fill-2" fill="#00112C"></path>
            <polyline id="Fill-3" fill="#00112C" points="31.9 3.69722222 35.6041667 3.69722222 35.6041667 14.2180556 39.8041667 9.36111111 44.3458333 9.36111111 39.4847222 14.8861111 44.2430556 21.3027778 39.5861111 21.3027778 35.6527778 15.4041667 35.6041667 15.4041667 35.6041667 21.3027778 31.9 21.3027778 31.9 3.69722222"></polyline>
            <path d="M18.4555556,9.36944444 L22.0152778,9.36944444 L22.0152778,10.9986111 L22.0625,10.9986111 C22.5583333,10.0611111 23.7680556,9.07222222 25.5722222,9.07222222 C29.3291667,9.07222222 30.0194444,11.5444444 30.0194444,14.7555556 L30.0194444,21.2972222 L26.3125,21.2972222 L26.3125,15.4958333 C26.3125,14.1125 26.2888889,12.3347222 24.3861111,12.3347222 C22.4583333,12.3347222 22.1611111,13.8416667 22.1611111,15.3972222 L22.1611111,21.2972222 L18.4555556,21.2972222 L18.4555556,9.36944444" id="Fill-4" fill="#00112C"></path>
            <path d="M55.2861111,19.2319444 C54.0972222,20.7402778 52.1458333,21.6055556 50.2194444,21.6055556 C46.5125,21.6055556 43.5472222,19.1333333 43.5472222,15.3027778 C43.5472222,11.475 46.5125,9.00277778 50.2194444,9.00277778 C53.6791667,9.00277778 55.8527778,11.475 55.8527778,15.3027778 L55.8527778,16.4652778 L47.2541667,16.4652778 C47.5486111,17.8736111 48.6138889,18.7861111 50.0458333,18.7861111 C51.2583333,18.7861111 52.0708333,18.1708333 52.6888889,17.3305556 L55.2861111,19.2319444 Z M52.1458333,13.9458333 C52.1694444,12.7097222 51.2069444,11.6722222 49.8722222,11.6722222 C48.2416667,11.6722222 47.3527778,12.7847222 47.2541667,13.9458333 L52.1458333,13.9458333 Z" id="Fill-5" fill="#00112C"></path>
            <g id="Group-9" transform="translate(56.555556, 0.000000)">
                <mask id="mask-2" fill="white">
                    <use xlink:href="#path-1"></use>
                </mask>
                <g id="Clip-7"></g>
                <path d="M13.3958333,21.2958333 L9.98333333,21.2958333 L9.98333333,19.7125 L9.93472222,19.7125 C9.36527778,20.5777778 7.93472222,21.5916667 6.25277778,21.5916667 C2.69305556,21.5916667 0.347222222,19.0222222 0.347222222,15.3902778 C0.347222222,12.0541667 2.42361111,8.99027778 5.83333333,8.99027778 C7.36527778,8.99027778 8.79861111,9.40972222 9.6375,10.5708333 L9.68611111,10.5708333 L9.68611111,3.69722222 L13.3958333,3.69722222 L13.3958333,21.2958333 Z M7.01805556,12.2513889 C5.16527778,12.2513889 4.05277778,13.4875 4.05277778,15.2902778 C4.05277778,17.0958333 5.16527778,18.3305556 7.01805556,18.3305556 C8.87222222,18.3305556 9.98333333,17.0958333 9.98333333,15.2902778 C9.98333333,13.4875 8.87222222,12.2513889 7.01805556,12.2513889 Z" id="Fill-6" fill="#00112C" mask="url(#mask-2)"></path>
                <path d="M38.4055556,21.3027778 L34.6986111,21.3027778 L34.6986111,15.5 C34.6986111,14.1166667 34.675,12.3375 32.7708333,12.3375 C30.8430556,12.3375 30.5472222,13.8458333 30.5472222,15.4013889 L30.5472222,21.3027778 L26.8444444,21.3027778 L26.8444444,9.37222222 L30.3972222,9.37222222 L30.3972222,11.0027778 L30.4486111,11.0027778 C30.9444444,10.0652778 32.1527778,9.07638889 33.9569444,9.07638889 C37.7125,9.07638889 38.4055556,11.5458333 38.4055556,14.7597222 L38.4055556,21.3027778 Z M22.6638889,7.74305556 C21.4736111,7.74305556 20.5111111,6.77916667 20.5111111,5.59166667 C20.5111111,4.40555556 21.4736111,3.44166667 22.6638889,3.44166667 C23.85,3.44166667 24.8125,4.40555556 24.8125,5.59166667 C24.8125,6.77916667 23.85,7.74305556 22.6638889,7.74305556 Z M20.8055556,21.3027778 L24.5180556,21.3027778 L24.5180556,9.37222222 L20.8055556,9.37222222 L20.8055556,21.3027778 Z M40.2513889,0 L18.9458333,0 C17.9291667,0 17.1013889,0.806944444 17.1013889,1.80277778 L17.1013889,23.1958333 C17.1013889,24.1916667 17.9291667,25 18.9458333,25 L40.2513889,25 C41.2722222,25 42.1,24.1916667 42.1,23.1958333 L42.1,1.80277778 C42.1,0.806944444 41.2722222,0 40.2513889,0 Z" id="Fill-8" fill="#00112C" mask="url(#mask-2)"></path>
            </g>
        </g>
    </g>
</svg>