<svg width="160" height="70" viewBox="0 0 160 70" fill="none" xmlns="http://www.w3.org/2000/svg">
<path d="M45.9023 40.0035C45.9023 40.7594 45.7236 41.4573 45.3663 42.0969C45.0089 42.7366 44.4729 43.3181 43.8773 43.8415C43.2222 44.3648 42.4479 44.7719 41.5545 45.0627C40.6611 45.3534 39.7082 45.5279 38.6361 45.5279C37.6831 45.5279 36.7898 45.4697 36.0155 45.3534C35.2412 45.2371 34.5265 45.1208 33.8714 44.8882C33.2162 44.6556 32.561 44.423 31.9059 44.0741C31.3103 43.7252 30.6552 43.3181 30 42.8529L32.978 40.1198C33.8714 40.7594 34.7647 41.2247 35.5986 41.5154C36.4324 41.8062 37.3853 41.9225 38.3979 41.9225C38.8148 41.9225 39.1721 41.8643 39.5295 41.748C39.8868 41.6317 40.1846 41.5154 40.4824 41.341C40.7802 41.1665 40.9589 40.9339 41.1376 40.7013C41.3163 40.4687 41.3758 40.1779 41.3758 39.8872C41.3758 39.5964 41.3163 39.3057 41.1971 39.073C41.078 38.8404 40.8398 38.6078 40.4824 38.3752C40.1251 38.1426 39.7082 37.91 39.1126 37.6774C38.517 37.4448 37.7427 37.154 36.8493 36.8633C36.0155 36.6307 35.2412 36.2818 34.5265 35.991C33.7522 35.6421 33.0971 35.235 32.561 34.7698C31.9059 34.3046 31.489 33.7231 31.1316 33.0834C30.7743 32.4438 30.5956 31.6878 30.5956 30.8155C30.5956 30.0014 30.7743 29.2454 31.1912 28.5476C31.5485 27.8498 32.0846 27.2683 32.7397 26.7449C33.3949 26.2215 34.1691 25.8726 35.0625 25.5819C35.9559 25.2911 36.9089 25.1748 37.9214 25.1748C39.6486 25.1748 41.078 25.3493 42.2096 25.7563C43.4008 26.1634 44.4133 26.7449 45.3067 27.4427L42.3288 30.1177C41.7927 29.6525 41.1376 29.3036 40.4824 29.0128C39.7677 28.7802 38.9934 28.6058 38.0405 28.6058C37.6236 28.6058 37.2067 28.6639 36.8493 28.7802C36.492 28.9547 36.1942 29.1291 35.8964 29.3036C35.6581 29.478 35.4199 29.7106 35.3008 29.9432C35.1221 30.234 35.0625 30.4666 35.0625 30.7574C35.0625 31.0481 35.1221 31.3389 35.3008 31.5715C35.4199 31.8041 35.7177 32.0948 36.075 32.3275C36.4324 32.5601 36.9089 32.7927 37.5045 33.0253C38.1001 33.2579 38.8148 33.4905 39.7082 33.7812C40.8398 34.1302 41.7927 34.4791 42.567 34.8861C43.3413 35.2932 43.9964 35.7584 44.5325 36.2236C45.0089 36.6888 45.4258 37.2703 45.6641 37.8519C45.7832 38.5497 45.9023 39.2475 45.9023 40.0035Z" fill="#00112C"/>
<path d="M70.6789 45.12H66.3907V36.4554H57.6355V45.12H53.3472V25.5811H57.6355V33.3152H66.3907V25.5811H70.6789V45.12Z" fill="#00112C"/>
<path d="M93.9071 45.12H79.1959V25.5811H93.8475V28.7212H83.4246V33.3734H93.7284V36.3973H83.4246V41.7472H93.8475V45.12H93.9071Z" fill="#00112C"/>
<path d="M105.878 45.12H101.59V25.5811H105.878V45.12Z" fill="#00112C"/>
<path d="M130 25.5815V45.702L118.684 35.4673V45.0623H114.455V25L125.771 35.2347V25.5815H130ZM125.771 25.5815H130H125.771Z" fill="#00112C"/>
</svg>
